{
  "source": "C:\\Users\\Peter\\Desktop\\stuff\\MIUN\\quantitative_research\\video_compression\\videos\\HEVC_CLASS_B\\BasketballDrive_1920x1080_50.y4m",
  "output": "C:\\Users\\Peter\\Desktop\\stuff\\MIUN\\quantitative_research\\video_compression\\compressed_videos\\HEVC_CLASS_B\\vp9\\1.5\\BasketballDrive_1920x1080_50_vp9.webm",
  "codec": "vp9",
  "ok": "Input #0, yuv4mpegpipe, from 'C:\\Users\\Peter\\Desktop\\stuff\\MIUN\\quantitative_research\\video_compression\\videos\\HEVC_CLASS_B\\BasketballDrive_1920x1080_50.y4m':\n  Duration: 00:00:10.00, start: 0.000000, bitrate: 1244162 kb/s\n  Stream #0:0: Video: rawvideo (I420 / 0x30323449), yuv420p(progressive), 1920x1080, 50 fps, 50 tbr, 50 tbn\n[out#0/webm @ 000001da70349c80] Codec AVOption b:a (set bitrate (in bits/s)) has not been used for any stream. The most likely reason is either wrong type (e.g. a video option with no video streams) or that it is a private option of some decoder which was not actually used for any stream.\nStream mapping:\n  Stream #0:0 -> #0:0 (rawvideo (native) -> vp9 (libvpx-vp9))\nPress [q] to stop, [?] for help\n[libvpx-vp9 @ 000001da7034c000] v1.15.2-100-g40561f514\nOutput #0, webm, to 'C:\\Users\\Peter\\Desktop\\stuff\\MIUN\\quantitative_research\\video_compression\\compressed_videos\\HEVC_CLASS_B\\vp9\\1.5\\BasketballDrive_1920x1080_50_vp9.webm':\n  Metadata:\n    encoder         : Lavf62.3.100\n  Stream #0:0: Video: vp9, yuv420p(tv, progressive), 1920x1080, q=2-31, 1500 kb/s, 50 fps, 1k tbn\n    Metadata:\n      encoder         : Lavc62.11.100 libvpx-vp9\n    Side data:\n      cpb: bitrate max/min/avg: 0/0/0 buffer size: 1500000 vbv_delay: N/A\nframe=    0 fps=0.0 q=0.0 size=       0KiB time=N/A bitrate=N/A speed=N/A elapsed=0:00:00.53    \nframe=    2 fps=1.5 q=63.0 size=       0KiB time=00:00:00.04 bitrate=  96.4kbits/s speed=0.0298x elapsed=0:00:01.34    \nframe=    5 fps=2.7 q=61.0 size=       0KiB time=00:00:00.10 bitrate=  38.6kbits/s speed=0.0534x elapsed=0:00:01.87    \nframe=    8 fps=3.2 q=60.0 size=       0KiB time=00:00:00.14 bitrate=  27.5kbits/s speed=0.0563x elapsed=0:00:02.48    \nframe=   10 fps=3.1 q=60.0 size=       0KiB time=00:00:00.20 bitrate=  19.3kbits/s speed=0.0629x elapsed=0:00:03.17    \nframe=   13 fps=3.4 q=59.0 size=       0KiB time=00:00:00.24 bitrate=  16.1kbits/s speed=0.0625x elapsed=0:00:03.83    \nframe=   14 fps=3.0 q=58.0 size=       0KiB time=00:00:00.28 bitrate=  13.8kbits/s speed=0.0604x elapsed=0:00:04.63    \nframe=   17 fps=3.3 q=57.0 size=       0KiB time=00:00:00.34 bitrate=  11.3kbits/s speed=0.0657x elapsed=0:00:05.17    \nframe=   20 fps=3.5 q=57.0 size=       0KiB time=00:00:00.38 bitrate=  10.1kbits/s speed=0.0661x elapsed=0:00:05.75    \nframe=   22 fps=3.4 q=57.0 size=       0KiB time=00:00:00.44 bitrate=   8.8kbits/s speed=0.0685x elapsed=0:00:06.42    \nframe=   24 fps=3.4 q=57.0 size=       0KiB time=00:00:00.46 bitrate=   8.4kbits/s speed=0.0656x elapsed=0:00:07.01    \nframe=   26 fps=3.4 q=57.0 size=       0KiB time=00:00:00.52 bitrate=   7.4kbits/s speed=0.0677x elapsed=0:00:07.67    \nframe=   28 fps=3.4 q=58.0 size=       0KiB time=00:00:00.56 bitrate=   6.9kbits/s speed=0.0674x elapsed=0:00:08.31    \nframe=   30 fps=3.4 q=59.0 size=       0KiB time=00:00:00.60 bitrate=   6.4kbits/s speed=0.0678x elapsed=0:00:08.85    \nframe=   31 fps=3.3 q=59.0 size=       0KiB time=00:00:00.62 bitrate=   6.2kbits/s speed=0.0661x elapsed=0:00:09.38    \nframe=   33 fps=3.3 q=59.0 size=       0KiB time=00:00:00.66 bitrate=   5.8kbits/s speed=0.0663x elapsed=0:00:09.96    \nframe=   34 fps=3.2 q=44.0 size=       0KiB time=00:00:00.66 bitrate=   5.8kbits/s speed=0.0627x elapsed=0:00:10.53    \nframe=   36 fps=3.2 q=57.0 size=       0KiB time=00:00:00.72 bitrate=   5.4kbits/s speed=0.0644x elapsed=0:00:11.17    \nframe=   38 fps=3.2 q=58.0 size=       0KiB time=00:00:00.76 bitrate=   5.1kbits/s speed=0.0648x elapsed=0:00:11.72    \nframe=   41 fps=3.3 q=58.0 size=       0KiB time=00:00:00.82 bitrate=   4.7kbits/s speed=0.0664x elapsed=0:00:12.34    \nframe=   42 fps=3.2 q=59.0 size=       0KiB time=00:00:00.84 bitrate=   4.6kbits/s speed=0.0646x elapsed=0:00:12.99    \nframe=   44 fps=3.3 q=59.0 size=       0KiB time=00:00:00.88 bitrate=   4.4kbits/s speed=0.0651x elapsed=0:00:13.51    \nframe=   44 fps=3.1 q=59.0 size=       0KiB time=00:00:00.88 bitrate=   4.4kbits/s speed=0.0628x elapsed=0:00:14.01    \nframe=   45 fps=3.1 q=44.0 size=       0KiB time=00:00:00.90 bitrate=   4.3kbits/s speed=0.0619x elapsed=0:00:14.53    \nframe=   47 fps=3.1 q=59.0 size=       0KiB time=00:00:00.94 bitrate=   4.1kbits/s speed=0.0625x elapsed=0:00:15.04    \nframe=   49 fps=3.1 q=60.0 size=       0KiB time=00:00:00.98 bitrate=   3.9kbits/s speed=0.0629x elapsed=0:00:15.57    \nframe=   50 fps=3.1 q=60.0 size=       0KiB time=00:00:01.00 bitrate=   3.9kbits/s speed=0.0622x elapsed=0:00:16.08    \nframe=   51 fps=3.1 q=60.0 size=       0KiB time=00:00:01.02 bitrate=   3.8kbits/s speed=0.0614x elapsed=0:00:16.60    \nframe=   53 fps=3.1 q=60.0 size=       0KiB time=00:00:01.06 bitrate=   3.6kbits/s speed=0.062x elapsed=0:00:17.10    \nframe=   54 fps=3.1 q=61.0 size=       0KiB time=00:00:01.08 bitrate=   3.6kbits/s speed=0.0613x elapsed=0:00:17.62    \nframe=   55 fps=3.0 q=61.0 size=       0KiB time=00:00:01.10 bitrate=   3.5kbits/s speed=0.0606x elapsed=0:00:18.14    \nframe=   57 fps=3.1 q=62.0 size=       0KiB time=00:00:01.14 bitrate=   3.4kbits/s speed=0.0611x elapsed=0:00:18.65    \nframe=   59 fps=3.1 q=61.0 size=       0KiB time=00:00:01.18 bitrate=   3.3kbits/s speed=0.0615x elapsed=0:00:19.18    \nframe=   61 fps=3.1 q=61.0 size=       0KiB time=00:00:01.22 bitrate=   3.2kbits/s speed=0.0619x elapsed=0:00:19.69    \nframe=   61 fps=3.0 q=61.0 size=       0KiB time=00:00:01.22 bitrate=   3.2kbits/s speed=0.0604x elapsed=0:00:20.20    \nframe=   63 fps=3.0 q=61.0 size=       0KiB time=00:00:01.26 bitrate=   3.1kbits/s speed=0.0608x elapsed=0:00:20.72    \nframe=   65 fps=3.1 q=60.0 size=       0KiB time=00:00:01.30 bitrate=   3.0kbits/s speed=0.0612x elapsed=0:00:21.24    \nframe=   67 fps=3.1 q=61.0 size=       0KiB time=00:00:01.34 bitrate=   2.9kbits/s speed=0.0616x elapsed=0:00:21.75    \nframe=   67 fps=3.0 q=61.0 size=       0KiB time=00:00:01.34 bitrate=   2.9kbits/s speed=0.0602x elapsed=0:00:22.27    \nframe=   68 fps=3.0 q=50.0 size=       0KiB time=00:00:01.36 bitrate=   2.8kbits/s speed=0.0597x elapsed=0:00:22.78    \nframe=   70 fps=3.0 q=61.0 size=       0KiB time=00:00:01.40 bitrate=   2.8kbits/s speed=0.0601x elapsed=0:00:23.30    \nframe=   73 fps=3.1 q=61.0 size=       0KiB time=00:00:01.46 bitrate=   2.6kbits/s speed=0.0613x elapsed=0:00:23.81    \nframe=   73 fps=3.0 q=61.0 size=       0KiB time=00:00:01.46 bitrate=   2.6kbits/s speed=0.06x elapsed=0:00:24.33    \nframe=   75 fps=3.0 q=61.0 size=       0KiB time=00:00:01.50 bitrate=   2.6kbits/s speed=0.0604x elapsed=0:00:24.84    \nframe=   78 fps=3.1 q=60.0 size=       0KiB time=00:00:01.56 bitrate=   2.5kbits/s speed=0.0615x elapsed=0:00:25.36    \nframe=   80 fps=3.1 q=60.0 size=       0KiB time=00:00:01.60 bitrate=   2.4kbits/s speed=0.0618x elapsed=0:00:25.88    \nframe=   82 fps=3.1 q=61.0 size=       0KiB time=00:00:01.64 bitrate=   2.4kbits/s speed=0.0621x elapsed=0:00:26.39    \nframe=   84 fps=3.1 q=61.0 size=       0KiB time=00:00:01.68 bitrate=   2.3kbits/s speed=0.0624x elapsed=0:00:26.91    \nframe=   87 fps=3.2 q=60.0 size=       0KiB time=00:00:01.74 bitrate=   2.2kbits/s speed=0.0634x elapsed=0:00:27.42    \nframe=   89 fps=3.2 q=60.0 size=       0KiB time=00:00:01.78 bitrate=   2.2kbits/s speed=0.0637x elapsed=0:00:27.94    \nframe=   90 fps=3.2 q=60.0 size=       0KiB time=00:00:01.80 bitrate=   2.1kbits/s speed=0.0632x elapsed=0:00:28.45    \nframe=   93 fps=3.2 q=59.0 size=       0KiB time=00:00:01.86 bitrate=   2.1kbits/s speed=0.0642x elapsed=0:00:28.97    \nframe=   96 fps=3.3 q=60.0 size=       0KiB time=00:00:01.92 bitrate=   2.0kbits/s speed=0.0651x elapsed=0:00:29.49    \nframe=   98 fps=3.3 q=61.0 size=       0KiB time=00:00:01.96 bitrate=   2.0kbits/s speed=0.0653x elapsed=0:00:29.99    \nframe=  100 fps=3.3 q=60.0 size=       0KiB time=00:00:02.00 bitrate=   1.9kbits/s speed=0.0655x elapsed=0:00:30.52    \nframe=  102 fps=3.3 q=60.0 size=       0KiB time=00:00:02.04 bitrate=   1.9kbits/s speed=0.0657x elapsed=0:00:31.03    \nframe=  104 fps=3.3 q=60.0 size=       0KiB time=00:00:02.08 bitrate=   1.9kbits/s speed=0.0659x elapsed=0:00:31.55    \nframe=  106 fps=3.3 q=60.0 size=       0KiB time=00:00:02.12 bitrate=   1.8kbits/s speed=0.0661x elapsed=0:00:32.06    \nframe=  108 fps=3.3 q=61.0 size=       0KiB time=00:00:02.16 bitrate=   1.8kbits/s speed=0.0663x elapsed=0:00:32.58    \nframe=  110 fps=3.3 q=61.0 size=       0KiB time=00:00:02.20 bitrate=   1.8kbits/s speed=0.0665x elapsed=0:00:33.09    \nframe=  112 fps=3.3 q=60.0 size=       0KiB time=00:00:02.24 bitrate=   1.7kbits/s speed=0.0666x elapsed=0:00:33.61    \nframe=  114 fps=3.3 q=60.0 size=       0KiB time=00:00:02.28 bitrate=   1.7kbits/s speed=0.0668x elapsed=0:00:34.13    \nframe=  116 fps=3.3 q=60.0 size=       0KiB time=00:00:02.32 bitrate=   1.7kbits/s speed=0.067x elapsed=0:00:34.64    \nframe=  119 fps=3.4 q=60.0 size=       0KiB time=00:00:02.38 bitrate=   1.6kbits/s speed=0.0677x elapsed=0:00:35.15    \nframe=  120 fps=3.4 q=60.0 size=       0KiB time=00:00:02.40 bitrate=   1.6kbits/s speed=0.0673x elapsed=0:00:35.67    \nframe=  122 fps=3.4 q=58.0 size=       0KiB time=00:00:02.44 bitrate=   1.6kbits/s speed=0.0674x elapsed=0:00:36.19    \nframe=  125 fps=3.4 q=59.0 size=       0KiB time=00:00:02.50 bitrate=   1.5kbits/s speed=0.0681x elapsed=0:00:36.71    \nframe=  127 fps=3.4 q=59.0 size=       0KiB time=00:00:02.54 bitrate=   1.5kbits/s speed=0.0683x elapsed=0:00:37.21    \nframe=  128 fps=3.4 q=59.0 size=       0KiB time=00:00:02.56 bitrate=   1.5kbits/s speed=0.0678x elapsed=0:00:37.74    \nframe=  131 fps=3.4 q=60.0 size=     256KiB time=00:00:02.62 bitrate= 800.4kbits/s speed=0.0685x elapsed=0:00:38.25    \nframe=  134 fps=3.5 q=60.0 size=     256KiB time=00:00:02.68 bitrate= 782.5kbits/s speed=0.0691x elapsed=0:00:38.77    \nframe=  135 fps=3.4 q=47.0 size=     256KiB time=00:00:02.70 bitrate= 776.7kbits/s speed=0.0687x elapsed=0:00:39.28    \nframe=  138 fps=3.5 q=59.0 size=     256KiB time=00:00:02.76 bitrate= 759.8kbits/s speed=0.0693x elapsed=0:00:39.80    \nframe=  140 fps=3.5 q=60.0 size=     256KiB time=00:00:02.80 bitrate= 749.0kbits/s speed=0.0695x elapsed=0:00:40.31    \nframe=  141 fps=3.5 q=47.0 size=     256KiB time=00:00:02.82 bitrate= 743.7kbits/s speed=0.0691x elapsed=0:00:40.82    \nframe=  144 fps=3.5 q=59.0 size=     256KiB time=00:00:02.88 bitrate= 728.2kbits/s speed=0.0697x elapsed=0:00:41.34    \nframe=  146 fps=3.5 q=60.0 size=     256KiB time=00:00:02.92 bitrate= 718.2kbits/s speed=0.0698x elapsed=0:00:41.86    \nframe=  148 fps=3.5 q=61.0 size=     256KiB time=00:00:02.96 bitrate= 708.5kbits/s speed=0.0698x elapsed=0:00:42.38    \nframe=  150 fps=3.5 q=60.0 size=     256KiB time=00:00:03.00 bitrate= 699.1kbits/s speed=0.0699x elapsed=0:00:42.89    \nframe=  152 fps=3.5 q=61.0 size=     256KiB time=00:00:03.04 bitrate= 689.9kbits/s speed=0.07x elapsed=0:00:43.40    \nframe=  154 fps=3.5 q=61.0 size=     256KiB time=00:00:03.08 bitrate= 680.9kbits/s speed=0.0701x elapsed=0:00:43.92    \nframe=  156 fps=3.5 q=60.0 size=     256KiB time=00:00:03.12 bitrate= 672.2kbits/s speed=0.0702x elapsed=0:00:44.44    \nframe=  158 fps=3.5 q=61.0 size=     256KiB time=00:00:03.16 bitrate= 663.7kbits/s speed=0.0703x elapsed=0:00:44.95    \nframe=  159 fps=3.5 q=44.0 size=     256KiB time=00:00:03.18 bitrate= 659.5kbits/s speed=0.0699x elapsed=0:00:45.48    \nframe=  162 fps=3.5 q=59.0 size=     256KiB time=00:00:03.24 bitrate= 647.3kbits/s speed=0.0705x elapsed=0:00:45.98    \nframe=  164 fps=3.5 q=59.0 size=     256KiB time=00:00:03.28 bitrate= 639.4kbits/s speed=0.0705x elapsed=0:00:46.50    \nframe=  166 fps=3.5 q=60.0 size=     256KiB time=00:00:03.32 bitrate= 631.7kbits/s speed=0.0706x elapsed=0:00:47.01    \nframe=  169 fps=3.6 q=60.0 size=     256KiB time=00:00:03.38 bitrate= 620.5kbits/s speed=0.0711x elapsed=0:00:47.53    \nframe=  170 fps=3.5 q=44.0 size=     256KiB time=00:00:03.40 bitrate= 616.8kbits/s speed=0.0708x elapsed=0:00:48.04    \nframe=  173 fps=3.6 q=60.0 size=     256KiB time=00:00:03.46 bitrate= 606.1kbits/s speed=0.0712x elapsed=0:00:48.57    \nframe=  175 fps=3.6 q=60.0 size=     256KiB time=00:00:03.50 bitrate= 599.2kbits/s speed=0.0713x elapsed=0:00:49.08    \nframe=  177 fps=3.6 q=60.0 size=     256KiB time=00:00:03.54 bitrate= 592.4kbits/s speed=0.0714x elapsed=0:00:49.59    \nframe=  180 fps=3.6 q=60.0 size=     256KiB time=00:00:03.60 bitrate= 582.5kbits/s speed=0.0718x elapsed=0:00:50.11    \nframe=  180 fps=3.6 q=60.0 size=     256KiB time=00:00:03.60 bitrate= 582.5kbits/s speed=0.0711x elapsed=0:00:50.63    \nframe=  183 fps=3.6 q=60.0 size=     256KiB time=00:00:03.66 bitrate= 573.0kbits/s speed=0.0716x elapsed=0:00:51.14    \nframe=  186 fps=3.6 q=60.0 size=     256KiB time=00:00:03.72 bitrate= 563.8kbits/s speed=0.072x elapsed=0:00:51.66    \nframe=  189 fps=3.6 q=60.0 size=     256KiB time=00:00:03.78 bitrate= 554.8kbits/s speed=0.0724x elapsed=0:00:52.17    \nframe=  191 fps=3.6 q=60.0 size=     256KiB time=00:00:03.82 bitrate= 549.0kbits/s speed=0.0725x elapsed=0:00:52.69    \nframe=  192 fps=3.6 q=43.0 size=     256KiB time=00:00:03.84 bitrate= 546.1kbits/s speed=0.0722x elapsed=0:00:53.20    \nframe=  195 fps=3.6 q=58.0 size=     256KiB time=00:00:03.90 bitrate= 537.7kbits/s speed=0.0726x elapsed=0:00:53.72    \nframe=  197 fps=3.6 q=58.0 size=     256KiB time=00:00:03.94 bitrate= 532.3kbits/s speed=0.0726x elapsed=0:00:54.23    \nframe=  200 fps=3.7 q=59.0 size=     256KiB time=00:00:04.00 bitrate= 524.3kbits/s speed=0.0731x elapsed=0:00:54.74    \nframe=  202 fps=3.7 q=59.0 size=     256KiB time=00:00:04.04 bitrate= 519.1kbits/s speed=0.0731x elapsed=0:00:55.26    \nframe=  204 fps=3.7 q=58.0 size=     256KiB time=00:00:04.08 bitrate= 514.0kbits/s speed=0.0731x elapsed=0:00:55.77    \nframe=  207 fps=3.7 q=59.0 size=     256KiB time=00:00:04.14 bitrate= 506.6kbits/s speed=0.0735x elapsed=0:00:56.30    \nframe=  210 fps=3.7 q=60.0 size=     256KiB time=00:00:04.20 bitrate= 499.3kbits/s speed=0.0739x elapsed=0:00:56.81    \nframe=  213 fps=3.7 q=61.0 size=     256KiB time=00:00:04.26 bitrate= 492.3kbits/s speed=0.0743x elapsed=0:00:57.33    \nframe=  215 fps=3.7 q=61.0 size=     256KiB time=00:00:04.30 bitrate= 487.7kbits/s speed=0.0743x elapsed=0:00:57.84    \nframe=  218 fps=3.7 q=60.0 size=     256KiB time=00:00:04.36 bitrate= 481.0kbits/s speed=0.0747x elapsed=0:00:58.37    \nframe=  221 fps=3.8 q=60.0 size=     256KiB time=00:00:04.42 bitrate= 474.5kbits/s speed=0.0751x elapsed=0:00:58.87    \nframe=  225 fps=3.8 q=59.0 size=     256KiB time=00:00:04.50 bitrate= 466.0kbits/s speed=0.0757x elapsed=0:00:59.42    \nframe=  229 fps=3.8 q=58.0 size=     256KiB time=00:00:04.56 bitrate= 459.9kbits/s speed=0.076x elapsed=0:01:00.03    \nframe=  231 fps=3.8 q=57.0 size=     256KiB time=00:00:04.62 bitrate= 453.9kbits/s speed=0.0762x elapsed=0:01:00.63    \nframe=  235 fps=3.8 q=56.0 size=     256KiB time=00:00:04.68 bitrate= 448.1kbits/s speed=0.0765x elapsed=0:01:01.18    \nframe=  237 fps=3.8 q=57.0 size=     256KiB time=00:00:04.74 bitrate= 442.4kbits/s speed=0.0767x elapsed=0:01:01.76    \nframe=  240 fps=3.9 q=57.0 size=     256KiB time=00:00:04.80 bitrate= 436.9kbits/s speed=0.077x elapsed=0:01:02.30    \nframe=  243 fps=3.9 q=58.0 size=     256KiB time=00:00:04.86 bitrate= 431.5kbits/s speed=0.0773x elapsed=0:01:02.84    \nframe=  245 fps=3.9 q=58.0 size=     256KiB time=00:00:04.90 bitrate= 428.0kbits/s speed=0.0772x elapsed=0:01:03.43    \nframe=  249 fps=3.9 q=59.0 size=     256KiB time=00:00:04.98 bitrate= 421.1kbits/s speed=0.0778x elapsed=0:01:03.97    \nframe=  250 fps=3.9 q=45.0 size=     256KiB time=00:00:05.00 bitrate= 419.4kbits/s speed=0.0775x elapsed=0:01:04.49    \nframe=  253 fps=3.9 q=58.0 size=     256KiB time=00:00:05.04 bitrate= 416.1kbits/s speed=0.0775x elapsed=0:01:05.03    \nframe=  256 fps=3.9 q=58.0 size=     256KiB time=00:00:05.12 bitrate= 409.6kbits/s speed=0.0781x elapsed=0:01:05.59    \nframe=  256 fps=3.9 q=58.0 size=     256KiB time=00:00:05.12 bitrate= 409.6kbits/s speed=0.0774x elapsed=0:01:06.19    \nframe=  260 fps=3.9 q=58.0 size=     768KiB time=00:00:05.20 bitrate=1209.9kbits/s speed=0.0778x elapsed=0:01:06.81    \nframe=  262 fps=3.9 q=59.0 size=     768KiB time=00:00:05.24 bitrate=1200.7kbits/s speed=0.0778x elapsed=0:01:07.32    \nframe=  266 fps=3.9 q=58.0 size=     768KiB time=00:00:05.30 bitrate=1187.1kbits/s speed=0.0781x elapsed=0:01:07.88    \nframe=  268 fps=3.9 q=58.0 size=     768KiB time=00:00:05.36 bitrate=1173.8kbits/s speed=0.0783x elapsed=0:01:08.42    \nframe=  271 fps=3.9 q=58.0 size=     768KiB time=00:00:05.42 bitrate=1160.8kbits/s speed=0.0786x elapsed=0:01:08.94    \nframe=  274 fps=3.9 q=57.0 size=     768KiB time=00:00:05.48 bitrate=1148.1kbits/s speed=0.0788x elapsed=0:01:09.51    \nframe=  277 fps=4.0 q=56.0 size=     768KiB time=00:00:05.54 bitrate=1135.6kbits/s speed=0.079x elapsed=0:01:10.09    \nframe=  280 fps=4.0 q=58.0 size=     768KiB time=00:00:05.60 bitrate=1123.5kbits/s speed=0.0793x elapsed=0:01:10.60    \nframe=  282 fps=4.0 q=57.0 size=     768KiB time=00:00:05.64 bitrate=1115.5kbits/s speed=0.0793x elapsed=0:01:11.15    \nframe=  285 fps=4.0 q=58.0 size=     768KiB time=00:00:05.70 bitrate=1103.8kbits/s speed=0.0795x elapsed=0:01:11.70    \nframe=  288 fps=4.0 q=59.0 size=     768KiB time=00:00:05.76 bitrate=1092.3kbits/s speed=0.0797x elapsed=0:01:12.24    \nframe=  291 fps=4.0 q=59.0 size=     768KiB time=00:00:05.82 bitrate=1081.0kbits/s speed=0.08x elapsed=0:01:12.78    \nframe=  294 fps=4.0 q=59.0 size=     768KiB time=00:00:05.88 bitrate=1070.0kbits/s speed=0.0801x elapsed=0:01:13.44    \nframe=  297 fps=4.0 q=59.0 size=     768KiB time=00:00:05.94 bitrate=1059.2kbits/s speed=0.0803x elapsed=0:01:14.01    \nframe=  299 fps=4.0 q=60.0 size=     768KiB time=00:00:05.98 bitrate=1052.1kbits/s speed=0.0802x elapsed=0:01:14.57    \nframe=  302 fps=4.0 q=60.0 size=     768KiB time=00:00:06.04 bitrate=1041.6kbits/s speed=0.0804x elapsed=0:01:15.13    \nframe=  303 fps=4.0 q=61.0 size=     768KiB time=00:00:06.06 bitrate=1038.2kbits/s speed=0.0801x elapsed=0:01:15.69    \nframe=  306 fps=4.0 q=59.0 size=     768KiB time=00:00:06.12 bitrate=1028.0kbits/s speed=0.0803x elapsed=0:01:16.25    \nframe=  309 fps=4.0 q=60.0 size=     768KiB time=00:00:06.18 bitrate=1018.0kbits/s speed=0.0805x elapsed=0:01:16.76    \nframe=  310 fps=4.0 q=44.0 size=     768KiB time=00:00:06.20 bitrate=1014.8kbits/s speed=0.0802x elapsed=0:01:17.34    \nframe=  313 fps=4.0 q=61.0 size=     768KiB time=00:00:06.26 bitrate=1005.0kbits/s speed=0.0804x elapsed=0:01:17.86    \nframe=  316 fps=4.0 q=61.0 size=     768KiB time=00:00:06.32 bitrate= 995.5kbits/s speed=0.0806x elapsed=0:01:18.38    \nframe=  319 fps=4.0 q=60.0 size=     768KiB time=00:00:06.38 bitrate= 986.1kbits/s speed=0.0808x elapsed=0:01:18.93    \nframe=  320 fps=4.0 q=60.0 size=     768KiB time=00:00:06.40 bitrate= 983.0kbits/s speed=0.0805x elapsed=0:01:19.46    \nframe=  324 fps=4.0 q=60.0 size=     768KiB time=00:00:06.48 bitrate= 970.9kbits/s speed=0.081x elapsed=0:01:20.01    \nframe=  327 fps=4.1 q=62.0 size=     768KiB time=00:00:06.54 bitrate= 962.0kbits/s speed=0.0812x elapsed=0:01:20.57    \nframe=  330 fps=4.1 q=61.0 size=     768KiB time=00:00:06.60 bitrate= 953.3kbits/s speed=0.0814x elapsed=0:01:21.10    \nframe=  333 fps=4.1 q=59.0 size=     768KiB time=00:00:06.66 bitrate= 944.7kbits/s speed=0.0816x elapsed=0:01:21.63    \nframe=  336 fps=4.1 q=58.0 size=     768KiB time=00:00:06.72 bitrate= 936.2kbits/s speed=0.0817x elapsed=0:01:22.22    \nframe=  339 fps=4.1 q=59.0 size=     768KiB time=00:00:06.78 bitrate= 927.9kbits/s speed=0.0819x elapsed=0:01:22.81    \nframe=  342 fps=4.1 q=58.0 size=     768KiB time=00:00:06.84 bitrate= 919.8kbits/s speed=0.082x elapsed=0:01:23.37    \nframe=  345 fps=4.1 q=58.0 size=     768KiB time=00:00:06.90 bitrate= 911.8kbits/s speed=0.0822x elapsed=0:01:23.95    \nframe=  349 fps=4.1 q=56.0 size=     768KiB time=00:00:06.96 bitrate= 903.9kbits/s speed=0.0824x elapsed=0:01:24.50    \nframe=  352 fps=4.1 q=55.0 size=     768KiB time=00:00:07.02 bitrate= 896.2kbits/s speed=0.0825x elapsed=0:01:25.08    \nframe=  355 fps=4.1 q=56.0 size=     768KiB time=00:00:07.10 bitrate= 886.1kbits/s speed=0.0829x elapsed=0:01:25.65    \nframe=  357 fps=4.1 q=56.0 size=     768KiB time=00:00:07.14 bitrate= 881.2kbits/s speed=0.0828x elapsed=0:01:26.21    \nframe=  361 fps=4.2 q=56.0 size=     768KiB time=00:00:07.20 bitrate= 873.8kbits/s speed=0.083x elapsed=0:01:26.77    \nframe=  363 fps=4.2 q=56.0 size=     768KiB time=00:00:07.26 bitrate= 866.6kbits/s speed=0.0831x elapsed=0:01:27.33    \nframe=  366 fps=4.2 q=57.0 size=     768KiB time=00:00:07.32 bitrate= 859.5kbits/s speed=0.0833x elapsed=0:01:27.86    \nframe=  367 fps=4.1 q=58.0 size=     768KiB time=00:00:07.34 bitrate= 857.1kbits/s speed=0.083x elapsed=0:01:28.44    \nframe=  371 fps=4.2 q=57.0 size=     768KiB time=00:00:07.42 bitrate= 847.9kbits/s speed=0.0834x elapsed=0:01:28.95    \nframe=  375 fps=4.2 q=58.0 size=     768KiB time=00:00:07.48 bitrate= 841.1kbits/s speed=0.0836x elapsed=0:01:29.51    \nframe=  377 fps=4.2 q=55.0 size=     768KiB time=00:00:07.54 bitrate= 834.4kbits/s speed=0.0836x elapsed=0:01:30.16    \nframe=  379 fps=4.2 q=54.0 size=     768KiB time=00:00:07.58 bitrate= 830.0kbits/s speed=0.0835x elapsed=0:01:30.73    \nframe=  382 fps=4.2 q=54.0 size=     768KiB time=00:00:07.62 bitrate= 825.7kbits/s speed=0.0835x elapsed=0:01:31.27    \nframe=  384 fps=4.2 q=54.0 size=     768KiB time=00:00:07.68 bitrate= 819.2kbits/s speed=0.0836x elapsed=0:01:31.81    \nframe=  386 fps=4.2 q=58.0 size=    1280KiB time=00:00:07.72 bitrate=1358.3kbits/s speed=0.0836x elapsed=0:01:32.39    \nframe=  390 fps=4.2 q=57.0 size=    1280KiB time=00:00:07.80 bitrate=1344.3kbits/s speed=0.0839x elapsed=0:01:32.96    \nframe=  394 fps=4.2 q=58.0 size=    1280KiB time=00:00:07.88 bitrate=1330.7kbits/s speed=0.0842x elapsed=0:01:33.54    \nframe=  397 fps=4.2 q=57.0 size=    1280KiB time=00:00:07.94 bitrate=1320.6kbits/s speed=0.0844x elapsed=0:01:34.08    \nframe=  400 fps=4.2 q=58.0 size=    1280KiB time=00:00:08.00 bitrate=1310.7kbits/s speed=0.0845x elapsed=0:01:34.67    \nframe=  402 fps=4.2 q=47.0 size=    1280KiB time=00:00:08.04 bitrate=1304.2kbits/s speed=0.0844x elapsed=0:01:35.25    \nframe=  406 fps=4.2 q=58.0 size=    1280KiB time=00:00:08.10 bitrate=1294.5kbits/s speed=0.0845x elapsed=0:01:35.80    \nframe=  408 fps=4.2 q=47.0 size=    1280KiB time=00:00:08.16 bitrate=1285.0kbits/s speed=0.0846x elapsed=0:01:36.43    \nframe=  411 fps=4.2 q=58.0 size=    1280KiB time=00:00:08.22 bitrate=1275.6kbits/s speed=0.0847x elapsed=0:01:37.01    \nframe=  413 fps=4.2 q=59.0 size=    1280KiB time=00:00:08.26 bitrate=1269.5kbits/s speed=0.0847x elapsed=0:01:37.54    \nframe=  416 fps=4.2 q=58.0 size=    1280KiB time=00:00:08.30 bitrate=1263.3kbits/s speed=0.0846x elapsed=0:01:38.09    \nframe=  419 fps=4.2 q=59.0 size=    1280KiB time=00:00:08.38 bitrate=1251.3kbits/s speed=0.0849x elapsed=0:01:38.70    \nframe=  421 fps=4.2 q=59.0 size=    1280KiB time=00:00:08.42 bitrate=1245.3kbits/s speed=0.0848x elapsed=0:01:39.26    \nframe=  424 fps=4.2 q=59.0 size=    1280KiB time=00:00:08.46 bitrate=1239.5kbits/s speed=0.0848x elapsed=0:01:39.82    \nframe=  425 fps=4.2 q=60.0 size=    1280KiB time=00:00:08.50 bitrate=1233.6kbits/s speed=0.0847x elapsed=0:01:40.40    \nframe=  428 fps=4.2 q=59.0 size=    1280KiB time=00:00:08.56 bitrate=1225.0kbits/s speed=0.0847x elapsed=0:01:41.01    \nframe=  431 fps=4.2 q=60.0 size=    1280KiB time=00:00:08.62 bitrate=1216.4kbits/s speed=0.0849x elapsed=0:01:41.52    \nframe=  434 fps=4.3 q=60.0 size=    1280KiB time=00:00:08.68 bitrate=1208.0kbits/s speed=0.085x elapsed=0:01:42.08    \nframe=  436 fps=4.2 q=60.0 size=    1280KiB time=00:00:08.72 bitrate=1202.5kbits/s speed=0.085x elapsed=0:01:42.63    \nframe=  439 fps=4.3 q=60.0 size=    1280KiB time=00:00:08.78 bitrate=1194.3kbits/s speed=0.0851x elapsed=0:01:43.19    \nframe=  442 fps=4.3 q=61.0 size=    1280KiB time=00:00:08.84 bitrate=1186.2kbits/s speed=0.0852x elapsed=0:01:43.77    \nframe=  445 fps=4.3 q=62.0 size=    1280KiB time=00:00:08.90 bitrate=1178.2kbits/s speed=0.0853x elapsed=0:01:44.32    \nframe=  447 fps=4.3 q=62.0 size=    1280KiB time=00:00:08.94 bitrate=1172.9kbits/s speed=0.0852x elapsed=0:01:44.94    \nframe=  450 fps=4.3 q=59.0 size=    1280KiB time=00:00:09.00 bitrate=1165.1kbits/s speed=0.0853x elapsed=0:01:45.51    \nframe=  453 fps=4.3 q=60.0 size=    1280KiB time=00:00:09.06 bitrate=1157.4kbits/s speed=0.0854x elapsed=0:01:46.04    \nframe=  456 fps=4.3 q=59.0 size=    1280KiB time=00:00:09.10 bitrate=1152.3kbits/s speed=0.0853x elapsed=0:01:46.62    \nframe=  459 fps=4.3 q=59.0 size=    1280KiB time=00:00:09.18 bitrate=1142.2kbits/s speed=0.0856x elapsed=0:01:47.19    \nframe=  460 fps=4.3 q=39.0 size=    1280KiB time=00:00:09.20 bitrate=1139.8kbits/s speed=0.0854x elapsed=0:01:47.75    \nframe=  464 fps=4.3 q=61.0 size=    1280KiB time=00:00:09.28 bitrate=1129.9kbits/s speed=0.0857x elapsed=0:01:48.30    \nframe=  468 fps=4.3 q=61.0 size=    1280KiB time=00:00:09.36 bitrate=1120.3kbits/s speed=0.086x elapsed=0:01:48.86    \nframe=  470 fps=4.3 q=61.0 size=    1280KiB time=00:00:09.40 bitrate=1115.5kbits/s speed=0.0859x elapsed=0:01:49.40    \nframe=  473 fps=4.3 q=56.0 size=    1280KiB time=00:00:09.46 bitrate=1108.4kbits/s speed=0.0861x elapsed=0:01:49.92    \nframe=  476 fps=4.3 q=59.0 size=    1280KiB time=00:00:09.52 bitrate=1101.4kbits/s speed=0.0862x elapsed=0:01:50.45    \nframe=  476 fps=4.3 q=59.0 size=    1280KiB time=00:00:09.52 bitrate=1101.4kbits/s speed=0.0857x elapsed=0:01:51.05    \nframe=  476 fps=4.3 q=59.0 size=    1280KiB time=00:00:09.52 bitrate=1101.4kbits/s speed=0.0853x elapsed=0:01:51.58    \nframe=  476 fps=4.2 q=59.0 size=    1280KiB time=00:00:09.52 bitrate=1101.4kbits/s speed=0.0849x elapsed=0:01:52.10    \nframe=  476 fps=4.2 q=59.0 size=    1280KiB time=00:00:09.52 bitrate=1101.4kbits/s speed=0.0845x elapsed=0:01:52.65    \nframe=  476 fps=4.2 q=59.0 size=    1280KiB time=00:00:09.52 bitrate=1101.4kbits/s speed=0.0841x elapsed=0:01:53.21    \nframe=  476 fps=4.2 q=59.0 size=    1280KiB time=00:00:09.52 bitrate=1101.4kbits/s speed=0.0837x elapsed=0:01:53.77    \nframe=  476 fps=4.2 q=59.0 size=    1280KiB time=00:00:09.52 bitrate=1101.4kbits/s speed=0.0833x elapsed=0:01:54.31    \nframe=  476 fps=4.1 q=59.0 size=    1280KiB time=00:00:09.52 bitrate=1101.4kbits/s speed=0.0829x elapsed=0:01:54.85    \n[out#0/webm @ 000001da70349c80] video:1927KiB audio:0KiB subtitle:0KiB other streams:0KiB global headers:0KiB muxing overhead: 0.209170%\nframe=  500 fps=4.3 q=59.0 Lsize=    1931KiB time=00:00:10.00 bitrate=1581.7kbits/s speed=0.0869x elapsed=0:01:55.13    \n",
  "seconds": 116.06711149215698,
  "probe_out": {}
}